# Blender v2.82 (sub 7) OBJ File: 'rocks.blend'
# www.blender.org
o rock02_Cube.001
v -1.899859 0.454795 -0.120485
v -0.034131 0.596389 -1.748939
v 1.530642 0.469228 0.270051
v -0.335086 0.327634 1.898505
v -0.891603 -0.634132 0.116796
v 0.522386 1.558155 0.032770
v -1.921990 -0.202768 -0.014574
v -1.411491 0.421008 1.169261
v -0.871373 1.212134 -0.070827
v -1.530602 0.492190 -1.312596
v -0.674067 -0.236597 -1.140195
v 0.530566 1.362186 -1.445822
v 1.387102 0.633400 -1.273420
v 0.641011 -0.421257 0.285095
v 1.562648 1.356104 0.157373
v 0.816557 0.301448 1.715888
v -0.755642 -0.483596 1.352780
v 0.160709 1.206052 1.532368
v -1.536096 -0.177154 0.878146
v -0.752896 1.001799 0.968047
v -1.586218 -0.065603 -0.927619
v -0.674893 1.072967 -1.053369
v 0.278194 -0.286261 1.236634
v 0.937968 1.011045 1.269022
v 0.628019 -0.124881 -0.802248
v 1.529928 1.237418 -1.141926
vn -0.9104 0.4137 0.0014
vn -0.8491 -0.5281 -0.0038
vn -0.7452 -0.4766 0.4664
vn -0.7261 0.3077 0.6149
vn -0.4521 0.8069 0.3801
vn -0.4383 0.8986 0.0200
vn -0.3780 0.8318 -0.4064
vn -0.6559 0.2145 -0.7237
vn -0.6338 -0.5623 -0.5311
vn -0.0256 -0.0628 -0.9977
vn -0.0660 -0.7939 -0.6044
vn 0.0620 0.7457 -0.6634
vn 0.7309 0.5040 -0.4601
vn 0.6970 -0.3321 -0.6355
vn 0.3921 -0.8249 -0.4071
vn 0.9104 -0.3814 0.1603
vn 0.4485 -0.8937 0.0091
vn 0.7761 0.6062 0.1738
vn 0.5723 0.5404 0.6167
vn 0.5665 -0.2433 0.7873
vn 0.3310 -0.8366 0.4364
vn -0.1816 -0.0077 0.9833
vn -0.2342 -0.7786 0.5821
vn -0.0381 0.7635 0.6447
vn -0.1300 -0.9897 -0.0601
vn -0.0136 0.9977 0.0654
s 1
f 1//1 7//2 19//3 8//4
f 1//1 8//4 20//5 9//6
f 1//1 9//6 22//7 10//8
f 1//1 10//8 21//9 7//2
f 2//10 11//11 21//9 10//8
f 2//10 10//8 22//7 12//12
f 2//10 12//12 26//13 13//14
f 2//10 13//14 25//15 11//11
f 3//16 14//17 25//15 13//14
f 3//16 13//14 26//13 15//18
f 3//16 15//18 24//19 16//20
f 3//16 16//20 23//21 14//17
f 4//22 17//23 23//21 16//20
f 4//22 16//20 24//19 18//24
f 4//22 18//24 20//5 8//4
f 4//22 8//4 19//3 17//23
f 5//25 7//2 21//9 11//11
f 5//25 11//11 25//15 14//17
f 5//25 14//17 23//21 17//23
f 5//25 17//23 19//3 7//2
f 6//26 15//18 26//13 12//12
f 6//26 12//12 22//7 9//6
f 6//26 9//6 20//5 18//24
f 6//26 18//24 24//19 15//18
