# Blender v2.82 (sub 7) OBJ File: 'rocks.blend'
# www.blender.org
o rock04_Cube.005
v -1.385826 -0.149032 1.213831
v -1.370108 0.001241 1.345946
v -1.522317 0.001741 1.193115
v -1.022823 3.486281 0.899953
v -1.007192 3.638203 0.728792
v -1.173164 3.474582 0.744632
v -1.385826 -0.149032 -1.213165
v -1.520950 0.001599 -1.193389
v -1.368576 0.001342 -1.346083
v -0.954281 3.622231 -0.556916
v -0.965030 3.470252 -0.727210
v -1.121655 3.458858 -0.576797
v 1.385826 -0.149032 1.213831
v 1.510645 0.000117 1.195582
v 1.356503 0.001483 1.347925
v 0.683436 3.781497 0.754985
v 0.706451 3.632474 0.923700
v 0.861110 3.645189 0.773653
v 1.385826 -0.149032 -1.213165
v 1.358105 0.001295 -1.345709
v 1.511932 0.000342 -1.193140
v 0.736347 3.765525 -0.530723
v 0.912708 3.628899 -0.546032
v 0.764117 3.616883 -0.700998
v -1.230467 1.691101 1.098217
v -1.376408 1.685782 0.949603
v -1.202234 1.683528 -0.992276
v -1.351244 1.678235 -0.846064
v 1.099605 1.758482 -0.831311
v 0.953705 1.753234 -0.979628
v 0.925499 1.760741 1.110478
v 1.074439 1.766119 0.964611
v 0.264951 -0.149032 -1.469474
v 0.255417 0.001314 -1.629035
v 0.052645 3.831142 -0.661604
v 0.064838 3.681150 -0.866362
v 0.264951 -0.149032 1.448884
v 0.253843 0.001385 1.609164
v -0.000265 3.847114 0.884404
v 0.007121 3.696919 1.088467
v 0.081829 1.725045 -1.194807
v 0.053612 1.732578 1.318644
vn 0.0219 0.1470 0.9889
vn -0.0026 0.4947 0.8690
vn -0.4471 0.4201 0.7897
vn -0.4663 0.1551 0.8709
vn 0.9045 0.2231 -0.3633
vn 0.8306 0.4671 -0.3032
vn 0.8158 0.4658 0.3428
vn 0.8979 0.2051 0.3896
vn -0.0343 0.9362 -0.3497
vn -0.4351 0.8509 -0.2942
vn -0.4525 0.8544 0.2552
vn -0.0446 0.9383 0.3429
vn -0.9218 0.1433 0.3601
vn -0.8566 0.4208 0.2986
vn -0.8396 0.4267 -0.3360
vn -0.9113 0.1662 -0.3766
vn 0.0313 0.2064 -0.9780
vn 0.0140 0.5162 -0.8563
vn 0.4353 0.4567 -0.7758
vn 0.4728 0.2331 -0.8498
vn -0.3941 -0.8525 0.3435
vn -0.4242 -0.2434 0.8722
vn -0.9030 -0.2459 0.3524
vn -0.3966 -0.8520 -0.3415
vn -0.9016 -0.2307 -0.3658
vn -0.4255 -0.2116 -0.8798
vn -0.4182 0.4408 -0.7942
vn 0.4204 -0.8417 0.3388
vn 0.9176 -0.1718 0.3584
vn 0.4579 -0.2002 0.8661
vn 0.3501 0.8962 0.2724
vn 0.4232 0.4376 0.7933
vn 0.4226 -0.8411 -0.3376
vn 0.4659 -0.1725 -0.8678
vn 0.9189 -0.1603 -0.3604
vn 0.3596 0.8948 -0.2646
vn -0.4508 0.2091 -0.8677
vn 0.0206 -0.9015 -0.4324
vn 0.0393 -0.2391 -0.9702
vn 0.4648 0.1855 0.8657
vn 0.0189 -0.9034 0.4282
vn 0.0358 -0.2759 0.9605
s 1
f 42//1 40//2 4//3 25//4
f 29//5 23//6 18//7 32//8
f 35//9 10//10 5//11 39//12
f 26//13 6//14 12//15 28//16
f 41//17 36//18 24//19 30//20
f 1//21 2//22 3//23
f 4//3 5//11 6//14
f 7//24 8//25 9//26
f 10//10 11//27 12//15
f 13//28 14//29 15//30
f 16//31 17//32 18//7
f 19//33 20//34 21//35
f 22//36 23//6 24//19
f 7//24 1//21 3//23 8//25
f 25//4 4//3 6//14 26//13
f 5//11 10//10 12//15 6//14
f 27//37 9//26 8//25 28//16
f 33//38 7//24 9//26 34//39
f 35//9 22//36 24//19 36//18
f 29//5 21//35 20//34 30//20
f 13//28 19//33 21//35 14//29
f 22//36 16//31 18//7 23//6
f 31//40 15//30 14//29 32//8
f 37//41 13//28 15//30 38//42
f 39//12 5//11 4//3 40//2
f 33//38 19//33 13//28 37//41
f 17//32 31//40 32//8 18//7
f 23//6 29//5 30//20 24//19
f 11//27 27//37 28//16 12//15
f 2//22 25//4 26//13 3//23
f 34//39 41//17 30//20 20//34
f 3//23 26//13 28//16 8//25
f 21//35 29//5 32//8 14//29
f 38//42 42//1 25//4 2//22
f 15//30 31//40 42//1 38//42
f 9//26 27//37 41//17 34//39
f 7//24 33//38 37//41 1//21
f 16//31 39//12 40//2 17//32
f 1//21 37//41 38//42 2//22
f 10//10 35//9 36//18 11//27
f 19//33 33//38 34//39 20//34
f 27//37 11//27 36//18 41//17
f 22//36 35//9 39//12 16//31
f 31//40 17//32 40//2 42//1
